Coordinates
version=1
nRows=19
nColumns=24
inDegrees=yes

Units are S.I. units (second, meters, Newtons, ...)
Angles are in degrees.

endheader
time	pelvis_tilt	pelvis_list	pelvis_rotation	pelvis_tx	pelvis_ty	pelvis_tz	hip_flexion_r	hip_adduction_r	hip_rotation_r	knee_angle_r	ankle_angle_r	subtalar_angle_r	mtp_angle_r	hip_flexion_l	hip_adduction_l	hip_rotation_l	knee_angle_l	ankle_angle_l	subtalar_angle_l	mtp_angle_l	lumbar_extension	lumbar_bending	lumbar_rotation
      0.90883333	     -4.42657837	     -0.49157768	     -3.63886991	     -0.17267571	      0.89207407	      0.34910141	     -9.76841199	      5.41479611	      3.37682062	     -9.33244150	     17.63976398	      4.61582567	      6.34081107	     32.62392828	     -0.82800538	     -7.09882895	    -17.74161126	      1.75852235	     -4.40100901	      1.19537791	     -5.21762051	      0.84708611	      8.75861377
      0.91300000	     -4.54009447	     -0.50179442	     -3.76017915	     -0.16682730	      0.89068925	      0.34911018	     -9.75460656	      5.37309308	      3.35174090	     -9.98161049	     17.93377650	      4.96904698	      6.53810323	     32.66220475	     -0.81737845	     -7.08457819	    -17.50815371	      1.82197319	     -4.35264800	      1.16453404	     -5.04227313	      0.79976557	      8.86616673
      0.91716667	     -4.64712416	     -0.49589295	     -3.87266773	     -0.16094338	      0.88936157	      0.34910936	     -9.72839056	      5.31535333	      3.33140204	    -10.67241208	     18.19936498	      5.26335367	      6.74755384	     32.68649273	     -0.78862823	     -7.08236360	    -17.36548415	      1.86162339	     -4.35822241	      1.14565655	     -4.85587514	      0.75165824	      8.93368338
      0.92133333	     -4.73483948	     -0.47434145	     -3.96060978	     -0.15504060	      0.88810204	      0.34905472	     -9.68770119	      5.23668025	      3.23035803	    -11.43412376	     18.43817897	      5.63179443	      7.15554377	     32.69116988	     -0.72636783	     -7.04703557	    -17.32282437	      1.89773264	     -4.44377235	      1.13442168	     -4.71237549	      0.65476093	      9.00697975
      0.92550000	     -4.85433805	     -0.42788134	     -4.05540959	     -0.14907456	      0.88688889	      0.34900495	     -9.59813746	      5.13200604	      3.17069125	    -12.21693670	     18.54098334	      5.87427821	      9.43679208	     32.69564285	     -0.64199431	     -7.02373074	    -17.30095279	      1.82750975	     -4.62832199	      1.20726327	     -4.48553776	      0.55946355	      9.01321645
      0.92966667	     -4.97836853	     -0.42987675	     -4.15654391	     -0.14319801	      0.88568720	      0.34901123	     -9.45727942	      5.08951254	      3.17294592	    -13.10125914	     18.70037648	      6.11992158	      9.51035971	     32.75611420	     -0.63222107	     -7.05178114	    -17.47700818	      1.82608987	     -4.65990971	      1.22274103	     -4.29567878	      0.51138206	      9.02299432
      0.93383333	     -5.09682868	     -0.39497894	     -4.22859971	     -0.13724230	      0.88456624	      0.34891268	     -9.28280259	      4.99364298	      3.03408713	    -14.06221525	     18.81200105	      6.49745347	      9.65378968	     32.78324212	     -0.55782164	     -7.04324594	    -17.67044408	      1.75223720	     -4.84765713	      1.25665077	     -4.08366333	      0.44022641	      9.03799843
      0.93800000	     -5.21403316	     -0.34925237	     -4.29377930	     -0.13128563	      0.88351090	      0.34882129	     -9.07639871	      4.88848798	      2.91533457	    -15.08615052	     18.87787236	      6.84586681	      9.85230963	     32.80789319	     -0.47107026	     -7.02338050	    -17.93266120	      1.65244548	     -5.08576371	      1.30649326	     -3.88306418	      0.32627045	      9.01781428
      0.94216667	     -5.32250394	     -0.29455316	     -4.34424009	     -0.12530365	      0.88253702	      0.34869649	     -8.84544044	      4.76895782	      2.76061736	    -16.17272697	     18.88587503	      7.21450219	     10.13041509	     32.82192317	     -0.36746312	     -6.99768910	    -18.25539854	      1.53370907	     -5.36854016	      1.37843960	     -3.68768511	      0.21014096	      8.97727989
      0.94633333	     -5.43883770	     -0.23024576	     -4.40681752	     -0.11932088	      0.88163045	      0.34861646	     -8.57524328	      4.64527026	      2.68796158	    -17.31168329	     18.81769646	      7.47947330	     10.35668839	     32.84903685	     -0.27083911	     -7.01437517	    -18.65133238	      1.44334311	     -5.63150533	      1.43657608	     -3.48211220	      0.03856133	      8.89821233
      0.95050000	     -5.51278863	     -0.15526531	     -4.41501330	     -0.11329971	      0.88085273	      0.34838376	     -8.30646095	      4.48792816	      2.43590175	    -18.52000844	     18.59769765	      7.84173660	     14.35180466	     32.81284522	     -0.11359812	     -6.91744153	    -19.04036495	      1.27258680	     -6.09417826	      2.50177955	     -3.32199208	     -0.09335291	      8.82886452
      0.95466667	     -5.59131951	     -0.08240365	     -4.44687661	     -0.10730161	      0.88013903	      0.34821403	     -7.98407574	      4.33277758	      2.24738501	    -19.82363948	     18.40498803	      8.25971554	     14.48925923	     32.80348072	      0.00477922	     -6.93299547	    -19.52688039	      1.17805911	     -6.34811843	      2.55183684	     -3.16366094	     -0.24403908	      8.72823075
      0.95883333	     -5.67444791	     -0.00911647	     -4.44805070	     -0.10131166	      0.87947816	      0.34799747	     -7.61592205	      4.17724365	      2.03283387	    -21.19429957	     18.14418415	      8.63811377	     14.72677591	     32.81233876	      0.13861388	     -6.90677303	    -20.06737804	      1.07824708	     -6.67692908	      2.61373091	     -2.99706990	     -0.40286708	      8.60551596
      0.96300000	     -5.76820078	      0.06826440	     -4.46204994	     -0.09534408	      0.87889215	      0.34778985	     -7.18036899	      4.01417841	      1.85101968	    -22.65548458	     17.78853643	      8.95731794	     14.94361424	     32.82202337	      0.26668596	     -6.88398602	    -20.61382287	      1.02102504	     -6.93138735	      2.66160762	     -2.81424692	     -0.54462032	      8.46124278
      0.96716667	     -5.81165192	      0.16903245	     -4.43817251	     -0.08935469	      0.87842919	      0.34750069	     -6.76075584	      3.80435579	      1.56815248	    -24.17393057	     17.38995925	      9.42291314	     15.39627729	     32.79237309	      0.44082023	     -6.84692519	    -21.20957956	      0.96671689	     -7.30884431	      2.74804409	     -2.70238087	     -0.75251552	      8.30495437
      0.97133333	     -5.85430061	      0.29142241	     -4.45734369	     -0.08338017	      0.87810839	      0.34724574	     -6.28750030	      3.56444612	      1.38030810	    -25.75491954	     16.73524692	      9.68813229	     19.50206310	     32.71199281	      0.62453499	     -6.80167921	    -21.71794334	      0.89501359	     -7.73609350	      3.46119556	     -2.57475565	     -0.95329162	      8.13942017
      0.97550000	     -5.88898478	      0.37340864	     -4.40417388	     -0.07742089	      0.87779031	      0.34692118	     -5.78980416	      3.36446767	      1.08515084	    -27.39899066	     16.12333012	     10.10123719	     19.59852461	     32.68995003	      0.77403554	     -6.77328104	    -22.38933812	      1.06353259	     -7.78824777	      3.48758585	     -2.47291010	     -1.11702653	      7.96756710
      0.97966667	     -5.90503732	      0.49027183	     -4.36956990	     -0.07148828	      0.87758692	      0.34658993	     -5.25214891	      3.10888818	      0.80281054	    -29.12887204	     15.43810469	     10.51080108	     19.77124328	     32.62265262	      0.95711664	     -6.75042531	    -23.01060511	      1.18647901	     -7.98430495	      3.51573340	     -2.38703676	     -1.32219250	      7.77411389
      0.98383333	     -5.90458443	      0.62333107	     -4.32685342	     -0.06557091	      0.87747735	      0.34621801	     -4.68432325	      2.81951268	      0.50605985	    -30.92040111	     14.67691731	     10.94306734	     20.02674663	     32.52663171	      1.16475107	     -6.70517136	    -23.61716860	      1.33895649	     -8.18442126	      3.54808512	     -2.32953954	     -1.54843691	      7.56742826
